<svg width="64" height="64" viewBox="0 0 64 64" fill="none" xmlns="http://www.w3.org/2000/svg">
<circle cx="31.9993" cy="31.9993" r="31.9993" fill="#6FFFB0"/>
<path d="M31.9975 21.3343C37.8879 21.3432 42.655 26.1103 42.666 31.9977C42.655 37.8876 37.8879 42.6552 31.9975 42.6657C26.1101 42.6552 21.3433 37.8876 21.334 31.9977C21.3433 26.1103 26.1105 21.3432 31.9975 21.3343ZM64 32.0003C64 49.6733 49.6732 64 31.9999 64C21.5311 64 12.2377 58.9716 6.39936 51.2H31.9975C37.2157 51.2 41.9223 49.1433 45.3698 45.8006C48.9704 42.3095 51.1976 37.4158 51.2 31.9973C51.1953 21.3931 42.6042 12.8025 31.9975 12.7975C21.3932 12.8029 12.8026 21.3931 12.7976 31.9973C12.7992 35.9466 13.9946 39.6151 16.038 42.6661H1.82795C0.648128 39.3291 -2.69547e-06 35.7408 -2.69547e-06 31.9997C-2.69547e-06 14.3267 14.3264 -2.69547e-06 31.9999 -2.69547e-06C49.6732 0.000811537 64 14.3271 64 32.0003Z" fill="#7D4CDB"/>
</svg>
