<svg width="60" height="60" viewBox="0 0 60 60" fill="none" xmlns="http://www.w3.org/2000/svg">
<g clip-path="url(#clip0_1_55)">
<path d="M29.9994 55.9989C44.3585 55.9989 55.9989 44.3585 55.9989 29.9994C55.9989 15.6403 44.3585 4 29.9994 4C15.6403 4 4 15.6403 4 29.9994C4 44.3585 15.6403 55.9989 29.9994 55.9989Z" fill="#7D4CDB"/>
<path d="M30.002 21.3341C25.2161 21.3414 21.3428 25.2146 21.3339 29.9981C21.3428 34.7837 25.2161 38.6574 30.002 38.6659C34.7855 38.6574 38.6586 34.7837 38.6661 29.9981C38.6586 25.2146 34.7852 21.3414 30.002 21.3341ZM4 30.0002C4 44.3596 15.6405 56 30.0001 56C38.506 56 46.0569 51.9144 50.8005 45.6H30.002C25.7622 45.6 21.9381 43.9289 19.137 41.213C16.2115 38.3765 14.4019 34.4003 14.4 29.9978C14.4038 21.3819 21.3841 14.402 30.002 14.398C38.618 14.4024 45.5979 21.3819 45.6019 29.9978C45.6006 33.2066 44.6294 36.1873 42.9691 38.6662H54.5148C55.4734 35.9549 56 33.0394 56 29.9998C56 15.6404 44.3598 4 30.0001 4C15.6405 4.00066 4 15.6408 4 30.0002Z" fill="#6FFFB0"/>
</g>
<defs>
<clipPath id="clip0_1_55">
<rect width="52" height="52" fill="white" transform="translate(4 4)"/>
</clipPath>
</defs>
</svg>
